<svg width="617" height="606" viewBox="0 0 617 606" fill="none" xmlns="http://www.w3.org/2000/svg">
<path fill-rule="evenodd" clip-rule="evenodd" d="M191.907 173.041C237.473 172.15 285.051 185.673 317.619 217.404C348.322 247.315 350.19 293.75 358.804 335.641C366.372 372.443 374.157 409.113 364.51 445.43C354.449 483.303 332.53 516.102 303.762 542.84C271.664 572.674 235.768 603.618 191.907 605.855C147.198 608.135 105.841 583.153 71.3996 554.691C38.6296 527.61 14.0975 491.575 3.83255 450.432C-5.95721 411.194 4.80032 371.592 16.0223 332.735C27.6631 292.429 38.6028 250.517 69.733 222.252C103.004 192.044 146.88 173.922 191.907 173.041Z" fill="#D28686"/>
<path opacity="0.8" fill-rule="evenodd" clip-rule="evenodd" d="M392.806 0.340275C438.667 -2.7425 482.774 15.4709 520.996 40.7928C560.474 66.9467 597.554 100.295 611.58 145.277C625.51 189.948 609.777 236.532 595.976 281.243C581.925 326.763 571.476 378.753 531.415 404.978C491.798 430.913 440.072 418.605 392.806 414.245C350.071 410.303 307.906 403.954 271.746 381.024C233.865 357.002 203.457 323.434 185.282 282.646C165.577 238.423 147.29 187.379 165.472 142.519C183.385 98.3218 236.023 82.6264 276.65 57.218C314.091 33.8016 348.643 3.30895 392.806 0.340275Z" fill="#EC9494"/>
</svg>
