<svg width="186" height="131" viewBox="0 0 186 131" fill="none" xmlns="http://www.w3.org/2000/svg">
<path fill-rule="evenodd" clip-rule="evenodd" d="M50.9721 15.5158C63.0751 15.2789 75.712 18.8748 84.3626 27.3121C92.5174 35.2658 93.0136 47.613 95.3017 58.7524C97.3118 68.5381 99.3796 78.289 96.8171 87.9458C94.1448 98.0166 88.323 106.738 80.6821 113.848C72.1564 121.781 62.6221 130.009 50.9721 130.604C39.0972 131.21 28.1124 124.567 18.9644 116.999C10.2604 109.798 3.74444 100.216 1.01796 89.2761C-1.58229 78.8425 1.27501 68.3118 4.25568 57.9796C7.34758 47.2619 10.2533 36.1171 18.5217 28.6013C27.3587 20.5688 39.0126 15.75 50.9721 15.5158Z" fill="#FFF48F"/>
<path opacity="0.8" fill-rule="evenodd" clip-rule="evenodd" d="M126.647 0.0880996C138.636 -0.710054 150.167 4.00553 160.16 10.5616C170.481 17.333 180.175 25.9671 183.842 37.6133C187.484 49.1791 183.371 61.24 179.763 72.8159C176.089 84.6012 173.357 98.0619 162.884 104.852C152.527 111.566 139.004 108.38 126.647 107.251C115.474 106.23 104.45 104.587 94.9969 98.6499C85.0932 92.4304 77.1434 83.7394 72.3919 73.1792C67.2402 61.7294 62.4593 48.5139 67.2128 36.8991C71.896 25.4562 85.6575 21.3926 96.2788 14.8142C106.067 8.75149 115.101 0.856711 126.647 0.0880996Z" fill="#EC9494"/>
<path d="M39.5821 90H46.6861V74.64H60.1261V90H67.1821V54.432H60.1261V68.448H46.6861V54.432H39.5821V90ZM79.3182 90.672C81.8622 90.672 83.7342 88.656 83.7342 86.064C83.7342 83.424 81.8622 81.456 79.3182 81.456C76.8222 81.456 74.9502 83.424 74.9502 86.064C74.9502 88.656 76.8222 90.672 79.3182 90.672ZM97.5676 90.672C100.64 90.672 103.328 89.136 105.68 87.12H105.872L106.352 90H112.112V74.304C112.112 66.528 108.608 62.448 101.792 62.448C97.5676 62.448 93.7276 64.032 90.5596 66L93.1036 70.656C95.5996 69.216 97.9996 68.112 100.496 68.112C103.808 68.112 104.96 70.128 105.104 72.768C94.2556 73.92 89.5996 76.944 89.5996 82.704C89.5996 87.264 92.7676 90.672 97.5676 90.672ZM99.8716 85.152C97.8076 85.152 96.3196 84.24 96.3196 82.128C96.3196 79.728 98.5276 77.904 105.104 77.088V82.512C103.376 84.192 101.888 85.152 99.8716 85.152ZM119.303 90H126.359V63.12H119.303V90ZM122.855 58.8C125.255 58.8 126.935 57.264 126.935 54.912C126.935 52.608 125.255 51.072 122.855 51.072C120.407 51.072 118.727 52.608 118.727 54.912C118.727 57.264 120.407 58.8 122.855 58.8ZM143.721 90.672C146.073 90.672 147.945 90.144 149.385 89.664L148.233 84.528C147.513 84.816 146.457 85.104 145.593 85.104C143.193 85.104 141.945 83.664 141.945 80.592V68.688H148.569V63.12H141.945V55.872H136.089L135.273 63.12L131.097 63.456V68.688H134.889V80.592C134.889 86.592 137.337 90.672 143.721 90.672Z" fill="black"/>
<path d="M58.6083 46H59.1633V35.11H58.6083V46ZM65.6817 46H66.2217V39.955C67.2267 38.92 67.9467 38.395 68.9217 38.395C70.2717 38.395 70.8267 39.25 70.8267 40.99V46H71.3667V40.915C71.3667 38.875 70.6017 37.9 68.9817 37.9C67.8867 37.9 67.0617 38.53 66.2217 39.385V34.09H65.6817V46ZM76.0046 46.195C77.0546 46.195 78.0446 45.61 78.8546 44.95H78.8996L78.9746 46H79.4246V40.885C79.4246 39.28 78.8546 37.9 76.9946 37.9C75.7046 37.9 74.6096 38.56 74.1146 38.92L74.3846 39.355C74.8946 38.95 75.8396 38.395 76.9646 38.395C78.5996 38.395 78.9296 39.79 78.8846 41.065C75.3296 41.47 73.7246 42.295 73.7246 44.05C73.7246 45.55 74.7746 46.195 76.0046 46.195ZM76.0496 45.7C75.0896 45.7 74.2796 45.25 74.2796 44.035C74.2796 42.7 75.4496 41.905 78.8846 41.53V44.365C77.8496 45.25 76.9946 45.7 76.0496 45.7ZM84.2305 46.195C84.5005 46.195 84.9955 46.06 85.4605 45.895L85.2805 45.445C84.9955 45.58 84.5755 45.7 84.2755 45.7C83.1205 45.7 82.8955 44.995 82.8955 43.975V38.59H85.2355V38.095H82.8955V35.785H82.4305L82.3705 38.095L81.1105 38.17V38.59H82.3705V43.9C82.3705 45.28 82.7605 46.195 84.2305 46.195ZM89.9641 46.195C91.1341 46.195 91.8091 45.805 92.4091 45.445L92.1691 44.98C91.5691 45.415 90.8941 45.7 89.9941 45.7C88.1341 45.7 86.9191 44.17 86.9191 42.085H92.7091C92.7391 41.875 92.7391 41.71 92.7391 41.545C92.7391 39.205 91.5841 37.9 89.7541 37.9C87.9991 37.9 86.3491 39.49 86.3491 42.07C86.3491 44.65 87.9691 46.195 89.9641 46.195ZM86.9191 41.59C87.0841 39.595 88.3441 38.395 89.7541 38.395C91.2391 38.395 92.2141 39.445 92.2141 41.59H86.9191ZM99.4452 46H100.105L101.545 40.915C101.8 40.15 101.995 39.4 102.19 38.635H102.265C102.49 39.4 102.655 40.12 102.895 40.885L104.365 46H105.1L107.41 38.095H106.84L105.37 43.39C105.16 44.125 104.965 44.785 104.785 45.475H104.725C104.515 44.785 104.32 44.125 104.125 43.39L102.61 38.095H101.89L100.375 43.39C100.18 44.125 99.9852 44.785 99.7902 45.475H99.7152C99.5502 44.785 99.3552 44.125 99.1752 43.39L97.6602 38.095H97.0602L99.4452 46ZM110.912 46.195C111.962 46.195 112.952 45.61 113.762 44.95H113.807L113.882 46H114.332V40.885C114.332 39.28 113.762 37.9 111.902 37.9C110.612 37.9 109.517 38.56 109.022 38.92L109.292 39.355C109.802 38.95 110.747 38.395 111.872 38.395C113.507 38.395 113.837 39.79 113.792 41.065C110.237 41.47 108.632 42.295 108.632 44.05C108.632 45.55 109.682 46.195 110.912 46.195ZM110.957 45.7C109.997 45.7 109.187 45.25 109.187 44.035C109.187 42.7 110.357 41.905 113.792 41.53V44.365C112.757 45.25 111.902 45.7 110.957 45.7ZM117.259 46H117.799V38.095H117.259V46ZM117.544 36.1C117.844 36.1 118.084 35.875 118.084 35.485C118.084 35.155 117.844 34.915 117.544 34.915C117.229 34.915 117.004 35.155 117.004 35.485C117.004 35.875 117.229 36.1 117.544 36.1ZM122.976 46.195C123.246 46.195 123.741 46.06 124.206 45.895L124.026 45.445C123.741 45.58 123.321 45.7 123.021 45.7C121.866 45.7 121.641 44.995 121.641 43.975V38.59H123.981V38.095H121.641V35.785H121.176L121.116 38.095L119.856 38.17V38.59H121.116V43.9C121.116 45.28 121.506 46.195 122.976 46.195ZM126.215 43.15H126.65L126.71 35.98V34.93H126.155V35.98L126.215 43.15ZM126.425 46.195C126.74 46.195 127.04 45.955 127.04 45.55C127.04 45.115 126.74 44.875 126.425 44.875C126.125 44.875 125.825 45.115 125.825 45.55C125.825 45.955 126.125 46.195 126.425 46.195Z" fill="black"/>
</svg>
